<svg xmlns="http://www.w3.org/2000/svg" version="1.1" xmlns:xlink="http://www.w3.org/1999/xlink" xmlns:svgjs="http://svgjs.dev/svgjs" viewBox="0 0 600 600"><path d="M534.4405557058899 494.0559763875042C569.7552415274231 475.00003258053806 434.61537819531117 347.37766472165134 389.6853066824531 294.75528669023856C344.755235169595 242.13290865882578 300.17481245027534 159.26576439206147 264.86012662874214 178.32170819902763C229.54544080720893 197.37765200599378 132.8671202403958 356.46857150062266 177.79719175325386 409.09094953203544C222.72726326611192 461.7133275634482 499.1258698843569 513.1119201944698 534.4405557058899 494.0559763875042C569.7552415274231 475.00003258053806 434.61537819531117 347.37766472165134 389.6853066824531 294.75528669023856 " fill="url(&quot;#SvgjsLinearGradient1000&quot;)" fill-opacity="1" stroke-width="0" stroke="hsl(0, 0%, 20%)" transform="matrix(0.9396926207859084,-0.3420201433256687,0.3420201433256687,0.9396926207859084,-147.08618257272678,104.28813863441104)"></path><defs><linearGradient id="SvgjsLinearGradient1000"><stop stop-color="hsl(37, 99%, 67%)" offset="0"></stop><stop stop-color="hsl(316, 73%, 52%)" offset="1"></stop></linearGradient><linearGradient id="SvgjsLinearGradient1001" gradientTransform="rotate(0, 0.5, 0.5)"><stop stop-color="hsl(37, 99%, 67%)" offset="0"></stop><stop stop-color="hsl(316, 73%, 52%)" offset="1"></stop></linearGradient></defs><path d="M436.88813747059123 434.2658203231759C472.2028232921246 415.20987651620965 337.0629599600123 287.5875086573229 292.1328884471542 234.96513062591015C247.2028169342961 182.34275259449737 202.62239421497634 99.47560832773306 167.30770839344257 118.53155213469921C131.99302257190905 137.5874959416654 35.314702005095924 296.67841543629424 80.24477351795397 349.300793467707C125.17484503081204 401.9231714991198 401.57345164905854 453.32176413014207 436.88813747059123 434.2658203231759C472.2028232921246 415.20987651620965 337.0629599600123 287.5875086573229 292.1328884471542 234.96513062591015 " fill-opacity="0.15" fill="url(&quot;#SvgjsLinearGradient1001&quot;)" opacity="1" stroke-opacity="1" stroke-width="1" stroke="hsl(0, 0%, 20%)" transform="matrix(1,0,0,1,44.36622619628906,22.968650817871094)"></path></svg>